<?xml version="1.0" encoding="utf-8"?>
<!-- Generator: Adobe Illustrator 26.3.1, SVG Export Plug-In . SVG Version: 6.00 Build 0)  -->
<svg version="1.1" id="Layer_1" xmlns="http://www.w3.org/2000/svg" xmlns:xlink="http://www.w3.org/1999/xlink" x="0px" y="0px"
	 viewBox="0 0 4000 621.1" style="enable-background:new 0 0 4000 621.1;" xml:space="preserve">
<style type="text/css">
	.st0{fill:#11151C;}
	.st1{fill:#E7022E;}
	.st2{fill:url(#SVGID_1_);}
	.st3{fill:url(#SVGID_00000147186378123475153730000002633479686418482101_);}
	.st4{fill:url(#SVGID_00000031908822868434053380000013740377946749291393_);}
	.st5{fill:url(#SVGID_00000110455156550398713190000013406533264119527815_);}
	.st6{fill:url(#SVGID_00000181775492982475820870000007814050266374245018_);}
	.st7{opacity:0.8;}
	.st8{fill:#FF8380;}
</style>
<g>
	<g>
		<path class="st0" d="M870.8,403.4H983c5.1,46.3,24.6,84.7,101.3,84.7c51.4,0,85.4-28.2,85.4-68.7c0-41.2-21.7-55.7-97.7-67.3
			c-132.4-17.4-186.7-57.2-186.7-157c0-88.3,73.8-154.1,188.2-154.1c116.5,0,184.5,52.1,193.9,154.9h-107.8
			c-7.2-47-34.7-68.7-86.1-68.7s-77.4,23.9-77.4,58.6c0,36.9,16.6,54.3,96.2,65.9c125.2,15.9,189.6,49.9,189.6,157
			c0,91.9-75.3,165-197.6,165C942.5,573.4,877.3,506.9,870.8,403.4z"/>
		<path class="st0" d="M1315.9,430.9V187h104.2v229.4c0,51.4,21,76,65.9,76c44.1,0,78.9-27.5,78.9-83.2V187H1669v378.5h-104.2v-59.3
			c-19.5,38.4-57.9,67.3-120.1,67.3C1370.9,573.4,1315.9,530,1315.9,430.9z"/>
		<path class="st0" d="M1823.2,505.4v60.1h-104.9v-550h104.9v230.9c21-36.2,65.1-68,120.8-68c92.6,0,165,68.7,165,193.9v5.8
			c0,125.2-70.9,195.4-165,195.4C1885.4,573.4,1842.7,544.5,1823.2,505.4z M2002.7,378.8V373c0-76.7-37.6-114.3-90.5-114.3
			c-55,0-92.6,38.4-92.6,114.3v5.8c0,76,36.2,112.9,93.4,112.9C1970.8,491.7,2002.7,452.6,2002.7,378.8z"/>
		<path class="st0" d="M2140.2,430.9V187h104.2v229.4c0,51.4,21,76,65.8,76c44.1,0,78.9-27.5,78.9-83.2V187h104.2v378.5h-104.2
			v-59.3c-19.5,38.4-57.9,67.3-120.1,67.3C2195.1,573.4,2140.2,530,2140.2,430.9z"/>
		<path class="st0" d="M2549.8,187h104.9v72.4c23.9-50.7,60.8-77.4,122.3-78.2v97.7c-77.4-0.7-122.3,24.6-122.3,97v189.6h-104.9V187
			z"/>
		<path class="st0" d="M2914.5,505.4v60.1h-104.9v-550h104.9v230.9c21-36.2,65.1-68,120.9-68c92.6,0,165,68.7,165,193.9v5.8
			c0,125.2-70.9,195.4-165,195.4C2976.7,573.4,2934,544.5,2914.5,505.4z M3094,378.8V373c0-76.7-37.6-114.3-90.5-114.3
			c-55,0-92.6,38.4-92.6,114.3v5.8c0,76,36.2,112.9,93.4,112.9C3062.1,491.7,3094,452.6,3094,378.8z"/>
		<path class="st0" d="M3211.9,381.7v-5.8c0-124.5,75.3-197.6,164.3-197.6c57.9,0,93.4,26.1,115.1,64.4V187h104.2v378.5h-104.2V504
			c-20.3,37.6-64.4,69.5-118,69.5C3287.2,573.4,3211.9,507.6,3211.9,381.7z M3494.1,378.1v-5.8c0-76.7-34-113.6-86.8-113.6
			c-54.3,0-88.3,39.8-88.3,115.1v5.8c0,75.3,36.2,112.2,84.7,112.2C3455.1,491.7,3494.1,454.8,3494.1,378.1z"/>
		<path class="st0" d="M3644.7,187h104.9v60.1c18.8-37.6,60.1-68.7,123-68.7c74.5,0,127.4,44.9,127.4,146.2v241h-104.9V339.7
			c0-51.4-20.3-76-66.6-76c-44.9,0-78.9,27.5-78.9,83.2v218.5h-104.9V187z"/>
	</g>
	<g>
		<g>
			<g>
				<g>
					<path class="st1" d="M747.5,329c0,5.1-1.5,9.8-4.2,13.7c-0.9,1.3-1.8,2.6-3,3.7c-4.5,4.4-10.7,7.2-17.4,7.2H92.2
						c-12.9,0-24.9-4-34.8-10.9c-16.1-11.1-26.6-29.6-26.6-50.6c0-6.8,2.8-12.9,7.2-17.4c4.5-4.4,10.7-7.2,17.4-7.2H686
						C720,267.5,747.5,295.1,747.5,329z"/>
					<path class="st1" d="M566.2,176.8c0,11.9-4.8,22.6-12.6,30.4c-0.6,0.6-1.2,1.2-1.9,1.7c-7.6,6.8-17.5,10.9-28.5,10.9H43.1
						c-11,0-20.9-4.1-28.5-10.9C5.6,201.2,0,189.6,0,176.8c0-11.9,4.8-22.7,12.6-30.4c7.8-7.8,18.6-12.6,30.4-12.6h480.1
						C546.9,133.7,566.2,153,566.2,176.8z"/>
					<path class="st1" d="M778.2,444.3c0,11.9-4.8,22.7-12.6,30.4c-0.6,0.6-1.2,1.1-1.8,1.6c-7.6,6.9-17.6,11-28.6,11h-480
						c-11,0-21-4.1-28.6-11c-8.9-7.8-14.5-19.3-14.5-32.1c0-11.9,4.8-22.6,12.6-30.4s18.5-12.6,30.4-12.6h480
						C758.9,401.2,778.2,420.5,778.2,444.3z"/>
					<path class="st1" d="M665.5,43c0,11.9-4.8,22.6-12.6,30.4c-0.6,0.6-1.2,1.2-1.9,1.7c-7.6,6.8-17.5,10.9-28.5,10.9H94.3
						c-7.4,0-13.3-4.6-15.8-10.9c-1.5-3.9-1.6-8.4,0.2-12.7c8-18.9,21.3-34.5,37.8-45.4c16.4-11,36-17.1,56.6-17.1h449.3
						C646.2,0,665.5,19.3,665.5,43z"/>
					<path class="st1" d="M699.5,558.5c-8,19-21.3,34.6-37.7,45.5c-3.5,2.3-7.1,4.4-10.8,6.1c-13.9,7.1-29.6,11-45.9,11H155.9
						c-11,0-21-4.1-28.6-11c-8.9-7.8-14.5-19.3-14.5-32.1c0-11.9,4.8-22.6,12.6-30.4c7.8-7.8,18.6-12.6,30.4-12.6h528
						C696,535,704.2,547.3,699.5,558.5z"/>
				</g>
				<g>
					
						<linearGradient id="SVGID_1_" gradientUnits="userSpaceOnUse" x1="109.529" y1="-45.0061" x2="843.0648" y2="895.3037" gradientTransform="matrix(1 0 0 -1 0 624)">
						<stop  offset="3.834926e-02" style="stop-color:#E7022E"/>
						<stop  offset="0.8055" style="stop-color:#FFC0BE"/>
					</linearGradient>
					<path class="st2" d="M747.5,329c0,5.1-1.5,9.8-4.2,13.7c-0.9,1.3-1.8,2.6-3,3.7c-4.5,4.4-10.7,7.2-17.4,7.2H92.2
						c-12.9,0-24.9-4-34.8-10.9c-16.1-11.1-26.6-29.6-26.6-50.6c0-6.8,2.8-12.9,7.2-17.4c4.5-4.4,10.7-7.2,17.4-7.2H686
						C720,267.5,747.5,295.1,747.5,329z"/>
					
						<linearGradient id="SVGID_00000098903953373237186720000011760868642549761453_" gradientUnits="userSpaceOnUse" x1="-21.2793" y1="57.0374" x2="712.2566" y2="997.3472" gradientTransform="matrix(1 0 0 -1 0 624)">
						<stop  offset="3.834926e-02" style="stop-color:#E7022E"/>
						<stop  offset="0.8055" style="stop-color:#FFC0BE"/>
					</linearGradient>
					<path style="fill:url(#SVGID_00000098903953373237186720000011760868642549761453_);" d="M566.2,176.8
						c0,11.9-4.8,22.6-12.6,30.4c-0.6,0.6-1.2,1.2-1.9,1.7c-7.6,6.8-17.5,10.9-28.5,10.9H43.1c-11,0-20.9-4.1-28.5-10.9
						C5.6,201.2,0,189.6,0,176.8c0-11.9,4.8-22.7,12.6-30.4c7.8-7.8,18.6-12.6,30.4-12.6h480.1C546.9,133.7,566.2,153,566.2,176.8z"
						/>
					
						<linearGradient id="SVGID_00000076603891688979088980000000870921402456790453_" gradientUnits="userSpaceOnUse" x1="240.2687" y1="-146.9962" x2="973.8045" y2="793.3137" gradientTransform="matrix(1 0 0 -1 0 624)">
						<stop  offset="3.834926e-02" style="stop-color:#E7022E"/>
						<stop  offset="0.8055" style="stop-color:#FFC0BE"/>
					</linearGradient>
					<path style="fill:url(#SVGID_00000076603891688979088980000000870921402456790453_);" d="M778.2,444.3
						c0,11.9-4.8,22.7-12.6,30.4c-0.6,0.6-1.2,1.1-1.8,1.6c-7.6,6.9-17.6,11-28.6,11h-480c-11,0-21-4.1-28.6-11
						c-8.9-7.8-14.5-19.3-14.5-32.1c0-11.9,4.8-22.6,12.6-30.4s18.5-12.6,30.4-12.6h480C758.9,401.2,778.2,420.5,778.2,444.3z"/>
					
						<linearGradient id="SVGID_00000023283435326320747640000013584980563044167070_" gradientUnits="userSpaceOnUse" x1="-23.914" y1="59.0927" x2="709.6218" y2="999.4026" gradientTransform="matrix(1 0 0 -1 0 624)">
						<stop  offset="3.834926e-02" style="stop-color:#E7022E"/>
						<stop  offset="0.8055" style="stop-color:#FFC0BE"/>
					</linearGradient>
					<path style="fill:url(#SVGID_00000023283435326320747640000013584980563044167070_);" d="M665.5,43c0,11.9-4.8,22.6-12.6,30.4
						c-0.6,0.6-1.2,1.2-1.9,1.7c-7.6,6.8-17.5,10.9-28.5,10.9H94.3c-7.4,0-13.3-4.6-15.8-10.9c-1.5-3.9-1.6-8.4,0.2-12.7
						c8-18.9,21.3-34.5,37.8-45.4c16.4-11,36-17.1,56.6-17.1h449.3C646.2,0,665.5,19.3,665.5,43z"/>
					
						<linearGradient id="SVGID_00000042696331566373914770000006564063794910787762_" gradientUnits="userSpaceOnUse" x1="242.8776" y1="-149.0314" x2="976.4134" y2="791.2784" gradientTransform="matrix(1 0 0 -1 0 624)">
						<stop  offset="3.834926e-02" style="stop-color:#E7022E"/>
						<stop  offset="0.8055" style="stop-color:#FFC0BE"/>
					</linearGradient>
					<path style="fill:url(#SVGID_00000042696331566373914770000006564063794910787762_);" d="M699.5,558.5
						c-8,19-21.3,34.6-37.7,45.5c-3.5,2.3-7.1,4.4-10.8,6.1c-13.9,7.1-29.6,11-45.9,11H155.9c-11,0-21-4.1-28.6-11
						c-8.9-7.8-14.5-19.3-14.5-32.1c0-11.9,4.8-22.6,12.6-30.4c7.8-7.8,18.6-12.6,30.4-12.6h528C696,535,704.2,547.3,699.5,558.5z"
						/>
				</g>
			</g>
			<g class="st7">
				<g>
					<path class="st8" d="M747.5,329c0,5.1-1.5,9.8-4.2,13.7c-0.9,1.3-1.8,2.6-3,3.7c-4.5,4.4-10.7,7.2-17.4,7.2H92.2
						c-12.9,0-24.9-4-34.8-10.9c-16.1-11.1-26.7-29.6-26.7-50.6c0-0.6,0-1.2,0.1-1.8c0.9,19.8,11.2,37.2,26.6,47.7
						c9.9,6.9,21.9,10.9,34.8,10.9h630.6c6.8,0,12.9-2.8,17.4-7.2c1.1-1.1,2.1-2.4,3-3.7c2.4-3.4,3.8-7.5,4.1-12
						C747.4,327,747.5,328,747.5,329z"/>
					<path class="st8" d="M566.2,176.8c0,11.9-4.8,22.6-12.6,30.4c-0.6,0.6-1.2,1.2-1.9,1.7c-7.6,6.8-17.5,10.9-28.5,10.9H43
						c-11,0-20.9-4.1-28.5-10.9C5.6,201.2,0,189.6,0,176.8c0-0.8,0-1.6,0.1-2.4c0.6,11.9,6.1,22.5,14.5,29.9
						c7.6,6.8,17.5,10.9,28.5,10.9h480.1c11,0,20.9-4.1,28.5-10.9c0.7-0.5,1.3-1.1,1.9-1.7c7.3-7.3,12-17.1,12.5-28.1
						C566.1,175.2,566.2,176,566.2,176.8z"/>
					<path class="st8" d="M778.2,444.3c0,11.9-4.8,22.6-12.6,30.4c-0.6,0.6-1.2,1.1-1.8,1.6c-7.6,6.9-17.6,11-28.6,11h-480
						c-11,0-21-4.1-28.6-11c-8.9-7.8-14.4-19.3-14.4-32.1c0-0.8,0-1.6,0.1-2.4c0.6,11.9,6,22.4,14.4,29.8c7.6,6.9,17.6,11,28.6,11
						h480c11,0,21-4.1,28.6-11c0.6-0.5,1.2-1,1.8-1.6c7.3-7.3,12-17.1,12.5-28.1C778.2,442.7,778.2,443.5,778.2,444.3z"/>
					<path class="st8" d="M665.5,43c0,11.9-4.8,22.7-12.6,30.4c-0.6,0.6-1.2,1.2-1.9,1.7c-7.6,6.8-17.5,10.9-28.5,10.9H94.3
						c-7.4,0-13.3-4.6-15.8-10.9c-1-2.6-1.4-5.5-1-8.4c0.2,1.3,0.5,2.5,1,3.7c2.5,6.3,8.4,10.9,15.8,10.9h528.1
						c11,0,20.9-4.1,28.5-10.9c0.7-0.5,1.3-1.1,1.9-1.7c7.3-7.3,12-17.1,12.5-28.1C665.4,41.5,665.5,42.3,665.5,43z"/>
					<path class="st8" d="M699.5,558.5c-8,19-21.3,34.6-37.7,45.5c-3.5,2.3-7.1,4.4-10.8,6.1c-13.9,7.1-29.6,11-45.9,11H155.9
						c-11,0-21-4.1-28.6-11c-8.9-7.8-14.5-19.3-14.5-32.1c0-0.8,0-1.6,0.1-2.4c0.6,11.9,6,22.4,14.4,29.8c7.6,6.9,17.6,11,28.6,11
						h449.2c16.3,0,32-3.9,45.9-11c3.7-1.7,7.3-3.9,10.8-6.2c16.4-10.9,29.7-26.5,37.7-45.5c0.6-1.4,1-2.8,1.2-4.2
						C701.1,552.4,700.8,555.5,699.5,558.5z"/>
				</g>
			</g>
		</g>
	</g>
</g>
</svg>
